PathFileType	4	(X/Y/Z)	Patient4_TMGait_0pt4_01_right_01.trc.trc
DataRate	CameraRate	NumFrames	NumMarkers	Units	OrigDataRate	OrigDataStartFrame	OrigNumFrames
78.212290502793	78.212290502793	4	33	mm	78.212290502793	18	       141
Frame#	Time	Sacral			L.Shoulder			Chest			R.Shoulder			Neck			R.ASIS			L.ASIS			R.Thigh.Superior			R.Thigh.Lateral			R.Thigh.Inferior			R.Patella			L.Thigh.Superior			L.Thigh.Lateral			L.Thigh.Inferior			L.Patella			L.Shank.Superior			L.Shank.Lateral			L.Shank.Inferior			R.Shank.Superior			R.Shank.Lateral			R.Shank.Inferior			R.Heel			R.Midfoot.Superior			R.Midfoot.Lateral			R.Toe			L.Heel			L.Midfoot.Lateral			L.Midfoot.Superior			L.Toe			L.Elbow			L.Wrist			R.Elbow			R.Wrist			
		X1	Y1	Z1	X2	Y2	Z2	X3	Y3	Z3	X4	Y4	Z4	X5	Y5	Z5	X6	Y6	Z6	X7	Y7	Z7	X8	Y8	Z8	X9	Y9	Z9	X10	Y10	Z10	X11	Y11	Z11	X12	Y12	Z12	X13	Y13	Z13	X14	Y14	Z14	X15	Y15	Z15	X16	Y16	Z16	X17	Y17	Z17	X18	Y18	Z18	X19	Y19	Z19	X20	Y20	Z20	X21	Y21	Z21	X22	Y22	Z22	X23	Y23	Z23	X24	Y24	Z24	X25	Y25	Z25	X26	Y26	Z26	X27	Y27	Z27	X28	Y28	Z28	X29	Y29	Z29	X30	Y30	Z30	X31	Y31	Z31	X32	Y32	Z32	X33	Y33	Z33	

18	1.027357142857	824.201520283736	1001.568844515518	447.471023644245	1022.828183197487	1426.235178790503	262.243677104584	1103.598061461571	1365.307516580460	437.685981619284	1001.238665974095	1447.431248059973	596.890871865670	989.265344259618	1495.400283344097	413.091415507290	1044.195877252353	948.472407477542	587.666868095331	1051.529246372676	961.158894195541	311.761529115352	1110.093546343853	760.736971862311	565.513197779937	1054.720492135665	645.356140085352	639.340341846664	1140.104789458405	599.181823158338	560.373499268969	1167.333871704461	520.972687977711	576.309148938952	1063.640691175720	738.217925065962	341.036654796670	955.372752318390	639.327314393993	270.313442628610	1016.411701820570	549.471568954586	337.486811558796	1003.630257642980	484.938817656625	344.961667827343	976.785952003249	416.875219580231	335.602222687124	884.212703498557	304.009482145028	286.570064061075	934.615908396551	192.368433218022	357.833558404540	1154.777952224192	434.432916594760	588.471639151814	1107.660494852707	322.371946512257	658.798053703544	1175.656071775160	235.840901255730	605.400985997450	1082.803500058819	49.807193055608	586.570372884143	1249.109181613572	120.753337609901	617.323325196140	1171.475358490007	45.355838918095	654.529120298823	1373.827327059455	81.292069040456	634.251301308151	808.414701065164	38.033456546506	409.912351041000	873.659237012867	35.064083328373	321.716421387309	958.921915794263	96.037613953037	341.599148504277	1083.936697054052	46.701976031856	299.884384197770	1059.481959100637	1087.191366535516	124.374879536258	1299.854698851307	993.572262986436	136.591768964963	855.991848027943	1142.733050037850	723.053478081683	825.704257219569	888.928009418679	771.399414045507	
19	1.040142857143	825.745858192259	1000.840441028390	448.954005449990	1024.352762300908	1425.694590135992	264.069126175701	1104.656974369258	1364.803695870222	439.682513570055	1001.778379045390	1446.765099805518	598.631602201812	990.321640572997	1494.778344318963	414.776354354203	1045.371196075572	947.837960964537	589.800589997518	1053.485839492762	960.431323135057	313.846785512211	1110.993099913559	759.741958334597	568.050602084197	1053.686778571082	643.504180914086	639.653234549418	1139.929289308895	598.224435408452	561.453690971616	1166.013473439626	519.878235309057	576.346451329983	1064.292529966845	737.247912213949	343.011015061793	955.530370226179	638.920603284675	271.917383777089	1015.817407928433	548.653587961170	339.146957640537	1002.591318795954	483.887127315808	346.451175432996	975.137061124072	416.021825274880	336.850682818360	881.499171712577	304.199895188782	287.384841478597	930.645408060385	191.842149216920	358.269129430038	1153.593429639807	432.691424422972	587.877008352731	1105.522250066225	320.112300135770	656.477720478867	1174.047742709499	234.032015010429	603.148401479575	1081.373181164954	48.335065324332	581.854627790668	1247.196779990557	119.082634868916	614.524491653653	1169.212258455806	43.828579412082	650.850252840679	1371.742331352349	79.594603989843	632.810472317968	803.281428759001	38.036263687618	409.894455030888	868.524901964865	35.072302224321	321.725523761000	953.863607565323	95.949689427169	341.739487384878	1078.834176404165	46.387181720170	299.893406558596	1062.200945108919	1086.836264641335	126.392119822008	1303.604124716902	996.481278197773	139.330710660993	856.802438343753	1141.400972815856	723.447663590800	827.892554284142	887.035333868262	770.286765054748	
20	1.052928571429	827.474893206438	999.971054256931	450.727149363664	1025.719789714778	1425.087246731806	266.056018591919	1105.682881051070	1364.303179830986	441.801926085514	1002.304100558001	1446.025363781777	600.550333130006	991.306777559977	1494.084215191374	416.641498848387	1046.853060671532	947.134868686427	592.033289999638	1055.578903084712	959.721524292272	316.017492435169	1112.519302089237	758.883352874277	570.494815401309	1053.272755453265	641.662419463418	639.703519844471	1140.460700101253	597.382229623006	562.393123810074	1165.194897709443	518.499399097191	576.214340656983	1065.288255360318	736.264051060406	344.974725937085	956.005234907104	638.415352613828	273.682039308701	1015.700413350701	547.745838446474	340.857107825290	1002.093059054454	482.651744774523	348.015314979774	973.908623998548	414.986123500899	338.183340437112	879.014960893320	304.359062022807	288.296880012413	926.780104443628	191.199630693674	358.718011178507	1152.447614215732	430.525274645933	587.118503052828	1102.652662194432	317.769620273078	653.977294449119	1171.053568548093	231.699509754898	600.716059655699	1077.281333445621	47.074663691965	577.116637552055	1243.001635630604	116.725739016467	611.548298744069	1164.214890188049	42.329943537414	647.255277755519	1367.139028324657	76.563525198034	631.447477418219	798.138576040091	37.971912671089	409.880566839119	863.389225341355	35.034364974447	321.746705518998	948.797821175504	95.839731483843	341.897260372360	1073.744838533444	46.027451864314	299.900003413640	1064.626078106380	1086.341575788377	128.649711884727	1306.836939564423	998.680448394726	142.296826644070	858.197850848810	1139.646494572785	724.039892928708	831.450827896473	884.598210965733	769.198036186354	
21	1.065714285714	829.381510382587	998.968810161379	452.771255854644	1026.917595750683	1424.410921986842	268.202898039240	1106.682692584028	1363.810338806905	444.040561370853	1002.836521249701	1445.222718304905	602.649642639221	992.226890555775	1493.324513195575	418.691762277310	1048.647391053976	946.367215698090	594.343365561607	1057.771062592361	959.006835316850	318.268406714705	1114.580247953863	758.069756826650	572.816708671354	1053.403384211032	639.857210388887	639.580108734989	1141.565762781772	596.575504760528	563.224706942803	1164.762983799986	516.839972743896	575.946444764556	1066.637716570691	735.264079398636	346.876534918568	956.795544325276	637.798260559374	275.590682449813	1016.084801238696	546.736806040548	342.589181403542	1002.181834634479	481.209424749547	349.615943903634	973.112221278774	413.760690909547	339.580188684601	876.757471440171	304.490048138765	289.305300414783	923.013385925808	190.443200973515	359.182696730007	1151.349987030270	428.028685447814	586.261782180873	1099.329768739061	315.376368765840	651.489452841228	1167.039247574456	228.956422234136	598.219133222763	1071.142650718604	45.980103932168	572.649403673866	1237.104001391297	113.852074652616	608.474929235414	1157.194914377131	40.918008726847	643.911576785000	1360.679509032759	72.530549539717	630.060510893187	792.979874076473	37.842235911065	409.868241755289	858.251217236330	34.943512574008	321.782928564943	943.726299604063	95.708634903663	342.065863059065	1068.671322434898	45.625612567528	299.900406634313	1066.735832013943	1085.698795262784	131.138613921644	1309.553071431650	1000.165184487882	145.471161584996	860.146348307846	1137.528451401279	724.858795259847	836.331952916509	881.706517472797	768.177259632275	
